<?xml version="1.0" standalone="no"?>
<!DOCTYPE svg PUBLIC "-//W3C//DTD SVG 20010904//EN"
 "http://www.w3.org/TR/2001/REC-SVG-20010904/DTD/svg10.dtd">
<svg version="1.0" xmlns="http://www.w3.org/2000/svg"
 width="560.000000pt" height="560.000000pt" viewBox="0 0 560.000000 560.000000"
 preserveAspectRatio="xMidYMid meet">
<metadata>
Created by potrace 1.14, written by Peter Selinger 2001-2017
</metadata>
<g transform="translate(0.000000,560.000000) scale(0.100000,-0.100000)"
fill="#000000" stroke="none">
<path d="M3094 5234 c-83 -39 -195 -63 -419 -90 -115 -13 -235 -29 -265 -35
-193 -36 -369 -131 -518 -279 -202 -200 -281 -483 -270 -962 l4 -187 -57 -26
c-64 -28 -69 -36 -69 -104 0 -47 20 -81 48 -81 6 0 33 -5 61 -11 42 -9 51 -15
60 -41 6 -17 11 -59 11 -93 0 -163 92 -298 245 -358 72 -29 323 -36 413 -13
147 39 258 122 309 233 22 47 28 77 31 155 4 96 4 97 34 109 37 15 124 15 171
0 l37 -13 0 -88 c0 -190 83 -320 245 -383 72 -29 323 -36 413 -13 147 39 258
122 309 233 22 47 28 77 31 156 5 111 4 110 92 121 74 10 90 26 90 90 0 28 -4
57 -8 64 -5 7 -41 28 -81 47 l-73 35 6 48 c14 109 18 397 7 505 -37 350 -120
501 -387 702 -42 32 -78 63 -81 71 -3 8 2 32 11 54 9 22 16 54 16 70 0 37 -21
39 -95 11 -100 -37 -96 -38 -89 7 4 25 2 42 -5 47 -7 4 -46 -9 -88 -29 -41
-20 -76 -36 -78 -36 -2 0 6 17 18 38 22 42 18 72 -10 71 -10 0 -41 -12 -69
-25z m285 -606 c59 -68 109 -116 188 -178 133 -105 209 -226 244 -389 9 -46
49 -335 46 -337 -1 -1 -33 4 -72 12 -38 7 -84 13 -102 14 -23 0 -36 6 -44 22
-25 46 -106 121 -164 151 -57 31 -65 32 -175 31 -89 0 -126 -5 -164 -20 -27
-10 -50 -23 -50 -29 -1 -6 40 -13 94 -16 110 -7 197 -34 285 -87 l60 -37 -170
-6 c-192 -8 -290 -25 -417 -75 -118 -46 -160 -45 -285 5 -127 51 -190 62 -403
70 l-175 6 70 42 c90 54 158 74 275 82 54 3 94 10 94 16 -1 6 -24 19 -50 29
-38 15 -75 20 -164 20 -108 1 -119 -1 -170 -28 -60 -31 -143 -105 -166 -148
-11 -21 -22 -28 -43 -28 -16 0 -66 -7 -111 -16 -45 -8 -84 -13 -87 -10 -10 10
29 213 63 324 55 181 121 299 216 388 23 22 75 77 115 121 l72 81 273 -5 c271
-6 741 10 808 26 61 15 72 12 109 -31z m-964 -1014 c124 -31 168 -86 181 -225
15 -168 -62 -279 -238 -340 -86 -30 -312 -33 -402 -6 -71 22 -154 99 -174 162
-35 109 -23 271 24 333 26 34 100 76 116 65 5 -2 16 1 24 8 35 29 357 31 469
3z m1198 10 c20 -3 37 -10 37 -14 0 -5 13 -8 30 -8 44 1 108 -46 130 -95 10
-23 22 -76 26 -118 15 -168 -62 -279 -238 -340 -86 -30 -312 -33 -402 -6 -71
22 -154 99 -174 162 -19 61 -26 173 -13 240 22 115 102 170 270 184 89 8 268
5 334 -5z"/>
<path d="M2218 3464 c-77 -41 -75 -169 2 -209 84 -43 180 13 180 105 0 92 -99
149 -182 104z"/>
<path d="M3258 3464 c-77 -41 -75 -169 2 -209 60 -31 137 -10 165 45 57 110
-58 223 -167 164z"/>
<path d="M2430 2645 c-28 -34 22 -165 92 -241 84 -91 180 -130 303 -122 89 6
166 40 234 103 79 74 142 222 111 260 -21 26 -45 17 -59 -20 -22 -61 -41 -65
-301 -65 -260 0 -279 4 -301 65 -11 28 -18 35 -40 35 -15 0 -32 -7 -39 -15z"/>
<path d="M2105 1613 c-402 -37 -781 -252 -1027 -583 -35 -47 -74 -107 -87
-132 l-25 -45 39 -48 c22 -26 84 -90 140 -143 710 -674 1753 -850 2646 -448
156 71 303 158 451 269 119 89 288 243 352 322 l39 47 -23 41 c-94 169 -278
369 -440 477 -186 125 -389 203 -610 234 l-86 12 1 -70 c0 -62 -4 -79 -34
-134 -79 -146 -270 -252 -512 -283 -244 -32 -525 44 -668 180 -83 79 -116 146
-115 239 0 39 0 71 -1 70 0 -1 -18 -3 -40 -5z m856 -642 c76 -29 141 -88 176
-159 24 -49 28 -68 27 -137 -1 -100 -27 -171 -87 -240 -34 -39 -45 -61 -50
-99 -12 -87 -62 -109 -114 -50 -15 16 -23 20 -23 11 0 -8 -9 -26 -21 -41 -29
-37 -63 -34 -106 9 -19 19 -37 35 -39 35 -2 0 -4 -12 -4 -28 0 -35 -25 -72
-49 -72 -33 0 -68 39 -91 101 -14 37 -41 81 -70 112 -76 84 -85 107 -85 222 0
86 4 107 25 150 46 93 140 169 250 201 65 19 192 12 261 -15z"/>
<path d="M2823 838 c-13 -16 3 -190 20 -228 10 -20 20 -26 58 -28 63 -4 99 24
99 77 0 77 -143 221 -177 179z"/>
<path d="M2677 770 c-56 -62 -84 -130 -71 -168 12 -34 71 -67 105 -59 49 13
63 80 45 220 -5 37 -12 57 -21 57 -7 0 -33 -23 -58 -50z"/>
<path d="M2774 505 c-17 -42 -18 -84 -1 -90 6 -3 32 1 57 8 58 16 64 44 21 87
-39 39 -59 38 -77 -5z"/>
</g>
</svg>
